HIERARCHY
ROOT hip
{
	OFFSET 0.000000 0.000000 0.000000
	CHANNELS 6 Xposition Yposition Zposition Xrotation Zrotation Yrotation 
	JOINT abdomen
	{
		OFFSET 0.000000 3.422050 0.000000
		CHANNELS 3 Xrotation Zrotation Yrotation 
		JOINT chest
		{
			OFFSET 0.000000 8.486693 -0.684411
			CHANNELS 3 Xrotation Zrotation Yrotation 
			JOINT neck
			{
				OFFSET 0.000000 10.266162 -0.273764
				CHANNELS 3 Xrotation Zrotation Yrotation 
				JOINT head
				{
					OFFSET 0.000000 3.148285 0.000000
					CHANNELS 3 Xrotation Zrotation Yrotation 
					End Site
					{
						OFFSET 0.000000 3.148289 0.000000
					}
				}
			}
			JOINT lCollar
			{
				OFFSET 3.422053 6.707223 -0.821293
				CHANNELS 3 Yrotation Zrotation Xrotation 
				JOINT lShldr
				{
					OFFSET 3.285171 0.000000 0.000000
					CHANNELS 3 Zrotation Yrotation Xrotation 
					JOINT lForeArm
					{
						OFFSET 10.129278 0.000000 0.000000
						CHANNELS 3 Yrotation Zrotation Xrotation 
						JOINT lHand
						{
							OFFSET 8.486692 0.000000 0.000000
							CHANNELS 3 Zrotation Yrotation Xrotation 
							End Site
							{
								OFFSET 4.106464 0.000000 0.000000
							}
						}
					}
				}
			}
			JOINT rCollar
			{
				OFFSET -3.558935 6.707223 -0.821293
				CHANNELS 3 Yrotation Zrotation Xrotation 
				JOINT rShldr
				{
					OFFSET -3.148289 0.000000 0.000000
					CHANNELS 3 Zrotation Yrotation Xrotation 
					JOINT rForeArm
					{
						OFFSET -10.266159 0.000000 0.000000
						CHANNELS 3 Yrotation Zrotation Xrotation 
						JOINT rHand
						{
							OFFSET -8.349810 0.000000 0.000000
							CHANNELS 3 Zrotation Yrotation Xrotation 
							End Site
							{
								OFFSET -4.106464 0.000000 0.000000
							}
						}
					}
				}
			}
		}
	}
	JOINT lThigh
	{
		OFFSET 5.338403 -1.642589 1.368821
		CHANNELS 3 Xrotation Zrotation Yrotation 
		JOINT lShin
		{
			OFFSET -2.053232 -20.121670 0.000000
			CHANNELS 3 Xrotation Zrotation Yrotation 
			JOINT lFoot
			{
				OFFSET 0.000000 -19.300380 -1.231939
				CHANNELS 3 Xrotation Yrotation Zrotation 
				End Site
				{
					OFFSET 0.000000 -2.463878 4.653993
				}
			}
		}
	}
	JOINT rThigh
	{
		OFFSET -5.338403 -1.642589 1.368821
		CHANNELS 3 Xrotation Zrotation Yrotation 
		JOINT rShin
		{
			OFFSET 2.053232 -20.121670 0.000000
			CHANNELS 3 Xrotation Zrotation Yrotation 
			JOINT rFoot
			{
				OFFSET 0.000000 -19.300380 -1.231939
				CHANNELS 3 Xrotation Yrotation Zrotation 
				End Site
				{
					OFFSET 0.000000 -2.463878 4.653993
				}
			}
		}
	}
}
MOTION
Frames: 20
Frame Time: 0.049897
19.995884 6.189011 0.499900 -25.001125 0.000000 0.000000 -15.110754 0.000000 0.000000 9.875218 -0.119386 -0.638550 20.265928 9.998896 12.997030 12.371252 0.000000 0.000000 -3.104081 -12.125130 6.173480 -55.901871 -41.428295 -14.490744 -16.495121 4.233097 33.747253 -53.681046 3.572221 9.920610 3.465014 12.307015 5.962790 55.397038 41.039589 -14.758772 16.932159 -4.380645 33.730339 53.957230 -3.912312 9.916373 -60.173412 31.236113 76.859680 48.405457 -1.105522 -0.521835 17.604826 7.016406 0.090994 -60.170662 -31.247221 -76.885292 48.397312 1.081138 0.499283 17.597584 -7.009474 -0.092517 
19.995884 6.189011 0.523704 -25.001125 0.000000 0.000000 -14.760364 0.000000 0.000000 8.993414 -0.119412 -0.638592 19.437880 9.998904 12.997066 11.558753 0.000000 0.000000 -2.759063 -12.203182 6.640982 -56.115372 -41.409431 -14.324783 -16.691376 4.251864 33.752304 -53.784363 3.790107 9.979067 3.112603 12.380615 6.424329 55.613056 41.021744 -14.589994 17.132198 -4.401468 33.735397 54.067085 -4.138646 9.979432 -60.173412 31.236113 76.859680 48.405457 -1.105522 -0.521835 17.604826 7.016406 0.090994 -60.170662 -31.247221 -76.885292 48.397312 1.081138 0.499283 17.597584 -7.009474 -0.092517 
19.995884 6.189011 0.547509 -25.001125 0.000000 0.000000 -14.409988 0.000000 0.000000 8.111820 -0.119439 -0.638634 18.607771 9.998910 12.997096 10.744314 0.000000 0.000000 -2.413334 -12.278472 7.109050 -56.328735 -41.390106 -14.158962 -16.887632 4.270615 33.757431 -53.887508 4.008094 10.037145 2.759529 12.451432 6.886412 55.828918 41.003418 -14.421364 17.332239 -4.422275 33.740517 54.176735 -4.365097 10.042075 -60.173412 31.236113 76.859680 48.405457 -1.105522 -0.521835 17.604826 7.016406 0.090994 -60.170662 -31.247221 -76.885292 48.397312 1.081138 0.499283 17.597584 -7.009474 -0.092517 
19.995884 6.189011 0.571314 -25.001125 0.000000 0.000000 -14.059631 0.000000 0.000000 7.230538 -0.119467 -0.638675 17.775694 9.998918 12.997130 9.928014 0.000000 0.000000 -2.066932 -12.350989 7.577649 -56.541950 -41.370312 -13.993294 -17.083895 4.289348 33.762619 -53.990444 4.226179 10.094842 2.405831 12.519457 7.349001 56.044655 40.984604 -14.252870 17.532286 -4.443062 33.745716 54.286133 -4.591656 10.104294 -60.173412 31.236113 76.859680 48.405457 -1.105522 -0.521835 17.604826 7.016406 0.090994 -60.170662 -31.247221 -76.885292 48.397312 1.081138 0.499283 17.597584 -7.009474 -0.092517 
19.995884 6.189011 0.595119 -25.001125 0.000000 0.000000 -13.709304 0.000000 0.000000 6.349677 -0.119496 -0.638716 16.941713 9.998921 12.997161 9.109928 0.000000 0.000000 -1.719900 -12.420723 8.046739 -56.755024 -41.350063 -13.827776 -17.280155 4.308062 33.767868 -54.093193 4.444358 10.152163 2.051549 12.584679 7.812053 56.260265 40.965332 -14.084521 17.732336 -4.463832 33.750988 54.395332 -4.818326 10.166101 -60.173412 31.236113 76.859680 48.405457 -1.105522 -0.521835 17.604826 7.016406 0.090994 -60.170662 -31.247221 -76.885292 48.397312 1.081138 0.499283 17.597584 -7.009473 -0.092516 
19.995884 6.189011 0.618923 -25.001125 0.000000 0.000000 -13.359009 0.000000 0.000000 5.469335 -0.119525 -0.638756 16.105930 9.998931 12.997197 8.290132 0.000000 0.000000 -1.372275 -12.487662 8.516274 -56.967941 -41.329350 -13.662418 -17.476419 4.326756 33.773186 -54.195744 4.662629 10.209104 1.696725 12.647089 8.275527 56.475723 40.945576 -13.916327 17.932386 -4.484583 33.756329 54.504314 -5.045100 10.227492 -60.173412 31.236113 76.859680 48.405457 -1.105522 -0.521835 17.604826 7.016406 0.090994 -60.170662 -31.247221 -76.885292 48.397312 1.081138 0.499283 17.597586 -7.009474 -0.092517 
19.995884 6.189011 0.642728 -25.001125 0.000000 0.000000 -13.008748 0.000000 0.000000 4.589614 -0.119554 -0.638796 15.268414 9.998940 12.997230 7.468708 0.000000 0.000000 -1.024099 -12.551802 8.986220 -57.180710 -41.308178 -13.497224 -17.672682 4.345433 33.778557 -54.298107 4.880990 10.265668 1.341397 12.706681 8.739387 56.691017 40.925323 -13.748282 18.132437 -4.505312 33.761742 54.613094 -5.271978 10.288468 -60.173412 31.236113 76.859680 48.405457 -1.105522 -0.521835 17.604826 7.016406 0.090994 -60.170662 -31.247221 -76.885292 48.397312 1.081138 0.499283 17.597586 -7.009474 -0.092517 
19.995884 6.189011 0.666533 -25.001123 0.000000 0.000000 -12.658539 0.000000 0.000000 3.710624 -0.119584 -0.638835 14.429253 9.998947 12.997261 6.645730 0.000000 0.000000 -0.675415 -12.613132 9.456533 -57.393307 -41.286537 -13.332185 -17.868946 4.364092 33.784012 -54.400272 5.099434 10.321855 0.985609 12.763446 9.203586 56.906166 40.904613 -13.580400 18.332489 -4.526023 33.767235 54.721649 -5.498951 10.349027 -60.173412 31.236113 76.859680 48.405457 -1.105522 -0.521835 17.604826 7.016406 0.090994 -60.170662 -31.247221 -76.885292 48.397312 1.081138 0.499283 17.597586 -7.009474 -0.092517 
19.995884 6.189011 0.690338 -25.001125 0.000000 0.000000 -12.308380 0.000000 0.000000 2.832460 -0.119615 -0.638874 13.588533 9.998956 12.997294 5.821284 0.000000 0.000000 -0.326260 -12.671643 9.927171 -57.605762 -41.264450 -13.167321 -18.065203 4.382729 33.789513 -54.502258 5.317962 10.377666 0.629401 12.817378 9.668085 57.121170 40.883419 -13.412678 18.532541 -4.546715 33.772804 54.830006 -5.726022 10.409177 -60.173412 31.236113 76.859680 48.405457 -1.105522 -0.521835 17.604826 7.016406 0.090994 -60.170662 -31.247221 -76.885292 48.397312 1.081138 0.499283 17.597584 -7.009474 -0.092517 
19.995884 6.189011 0.714142 -25.001125 0.000000 0.000000 -11.958281 0.000000 0.000000 1.955231 -0.119646 -0.638912 12.746344 9.998966 12.997328 4.995453 0.000000 0.000000 0.023321 -12.727337 10.398094 -57.818031 -41.241890 -13.002631 -18.261457 4.401347 33.795078 -54.604061 5.536571 10.433104 0.272816 12.868475 10.132844 57.335995 40.861752 -13.245124 18.732584 -4.567386 33.778435 54.938148 -5.953182 10.468909 -60.173412 31.236113 76.859680 48.405457 -1.105522 -0.521835 17.604826 7.016406 0.090994 -60.170662 -31.247221 -76.885292 48.397312 1.081138 0.499283 17.597584 -7.009474 -0.092517 
19.995884 6.189011 0.737947 -25.001125 0.000000 0.000000 -11.608246 0.000000 0.000000 1.079033 -0.119678 -0.638950 11.902767 9.998977 12.997361 4.168313 0.000000 0.000000 0.373288 -12.780201 10.869262 -58.030148 -41.218891 -12.838116 -18.457705 4.419944 33.800713 -54.705677 5.755256 10.488166 -0.084105 12.916726 10.597816 57.550682 40.839622 -13.077747 18.932623 -4.588035 33.784134 55.046101 -6.180432 10.528231 -60.173412 31.236113 76.859680 48.405457 -1.105522 -0.521835 17.604826 7.016406 0.090994 -60.170662 -31.247221 -76.885292 48.397312 1.081138 0.499283 17.597584 -7.009474 -0.092517 
19.995884 6.189011 0.761752 -25.001125 0.000000 0.000000 -11.258283 0.000000 0.000000 0.203966 -0.119711 -0.638987 11.057892 9.998986 12.997393 3.339954 0.000000 0.000000 0.723600 -12.830233 11.340629 -58.242088 -41.195423 -12.673779 -18.653955 4.438522 33.806416 -54.807114 5.974015 10.542852 -0.441321 12.962134 11.062966 57.765186 40.817017 -12.910537 19.132658 -4.608662 33.789913 55.153839 -6.407765 10.587140 -60.173412 31.236113 76.859680 48.405457 -1.105522 -0.521835 17.604826 7.016406 0.090994 -60.170662 -31.247221 -76.885292 48.397312 1.081138 0.499283 17.597584 -7.009474 -0.092517 
19.995884 6.189011 0.785557 -25.001123 0.000000 0.000000 -10.908399 0.000000 0.000000 -0.669865 -0.119744 -0.639023 10.211809 9.998998 12.997423 2.510455 0.000000 0.000000 1.074212 -12.877428 11.812156 -58.453838 -41.171497 -12.509624 -18.850183 4.457078 33.812168 -54.908367 6.192845 10.597166 -0.798788 13.004692 11.528247 57.979504 40.793919 -12.743508 19.332689 -4.629267 33.795761 55.261391 -6.635181 10.645641 -60.173412 31.236113 76.859680 48.405457 -1.105522 -0.521835 17.604826 7.016406 0.090994 -60.170662 -31.247221 -76.885292 48.397312 1.081138 0.499283 17.597584 -7.009473 -0.092516 
19.995884 6.189011 0.809361 -25.001125 0.000000 0.000000 -10.558599 0.000000 0.000000 -1.542368 -0.119777 -0.639059 9.364612 9.999009 12.997457 1.679904 0.000000 0.000000 1.425085 -12.921782 12.283798 -58.665409 -41.147114 -12.345658 -19.046419 4.475613 33.818001 -55.009426 6.411742 10.651105 -1.156465 13.044397 11.993619 58.193657 40.770370 -12.576659 19.532707 -4.649850 33.801685 55.368729 -6.862673 10.703728 -60.173412 31.236113 76.859680 48.405457 -1.105522 -0.521835 17.604826 7.016406 0.090994 -60.170662 -31.247221 -76.885292 48.397312 1.081138 0.499283 17.597584 -7.009473 -0.092516 
19.995884 6.189011 0.833166 -25.001125 0.000000 0.000000 -10.208893 0.000000 0.000000 -2.413439 -0.119811 -0.639095 8.516382 9.999021 12.997488 0.848384 0.000000 0.000000 1.776175 -12.963296 12.755517 -58.876804 -41.122288 -12.181888 -19.242638 4.494127 33.823891 -55.110336 6.630705 10.704673 -1.514308 13.081248 12.459034 58.407631 40.746349 -12.410010 19.732718 -4.670413 33.807678 55.475868 -7.090240 10.761407 -60.173412 31.236113 76.859680 48.405457 -1.105522 -0.521835 17.604826 7.016406 0.090994 -60.170662 -31.247221 -76.885292 48.397312 1.081138 0.499283 17.597586 -7.009474 -0.092517 
19.995884 6.189011 0.856971 -25.001125 0.000000 0.000000 -9.859281 0.000000 0.000000 -3.282984 -0.119845 -0.639130 7.667221 9.999034 12.997521 0.015984 0.000000 0.000000 2.127440 -13.001968 13.227268 -59.088017 -41.097012 -12.018312 -19.438847 4.512619 33.829842 -55.211052 6.849730 10.757870 -1.872276 13.115249 12.924459 58.621426 40.721863 -12.243543 19.932718 -4.690952 33.813747 55.582832 -7.317878 10.818677 -60.173412 31.236113 76.859680 48.405457 -1.105522 -0.521835 17.604826 7.016406 0.090994 -60.170662 -31.247221 -76.885292 48.397312 1.081138 0.499283 17.597586 -7.009474 -0.092517 
19.995884 6.189011 0.880776 -25.001125 0.000000 0.000000 -9.509775 0.000000 0.000000 -4.150911 -0.119880 -0.639164 6.817211 9.999046 12.997551 -0.817212 0.000000 0.000000 2.478838 -13.037799 13.699012 -59.299042 -41.071278 -11.854933 -19.635044 4.531088 33.835857 -55.311611 7.068815 10.810698 -2.230327 13.146395 13.389845 58.835026 40.696896 -12.077262 20.132710 -4.711468 33.819885 55.689602 -7.545586 10.875539 -60.173412 31.236113 76.859680 48.405457 -1.105522 -0.521835 17.604826 7.016406 0.090994 -60.170662 -31.247221 -76.885292 48.397312 1.081138 0.499283 17.597584 -7.009474 -0.092517 
19.995884 6.189011 0.904580 -25.001123 0.000000 0.000000 -9.160381 0.000000 0.000000 -5.017117 -0.119916 -0.639198 5.966453 9.999062 12.997585 -1.651116 0.000000 0.000000 2.830327 -13.070784 14.170699 -59.509861 -41.045094 -11.691756 -19.831228 4.549537 33.841927 -55.411987 7.287955 10.863152 -2.588416 13.174685 13.855150 59.048435 40.671463 -11.911189 20.332684 -4.731956 33.826092 55.796169 -7.773355 10.931992 -60.173412 31.236113 76.859680 48.405457 -1.105522 -0.521835 17.604826 7.016406 0.090994 -60.170662 -31.247221 -76.885292 48.397312 1.081138 0.499283 17.597584 -7.009474 -0.092517 
19.995884 6.189011 0.928385 -25.001125 0.000000 0.000000 -8.811102 0.000000 0.000000 -5.881515 -0.119951 -0.639231 5.115033 9.999073 12.997616 -2.485641 0.000000 0.000000 3.181862 -13.100924 14.642292 -59.720478 -41.018456 -11.528788 -20.027399 4.567960 33.848064 -55.512192 7.507150 10.915236 -2.946503 13.200126 14.320333 59.261646 40.645569 -11.745318 20.532646 -4.752425 33.832371 55.902554 -8.001188 10.988039 -60.173412 31.236113 76.859680 48.405457 -1.105522 -0.521835 17.604826 7.016406 0.090994 -60.170662 -31.247221 -76.885292 48.397312 1.081138 0.499283 17.597584 -7.009474 -0.092517 
19.995884 6.189011 0.952190 -25.001125 0.000000 0.000000 -8.461948 0.000000 0.000000 -6.744009 -0.119987 -0.639263 4.263048 9.999089 12.997648 -3.320697 0.000000 0.000000 3.533404 -13.128228 15.113749 -59.930874 -40.991356 -11.366021 -20.223557 4.586360 33.854275 -55.612236 7.726394 10.966951 -3.304545 13.222718 14.785352 59.474644 40.619198 -11.579651 20.732595 -4.772869 33.838718 56.008755 -8.229076 11.043677 -60.173412 31.236113 76.859680 48.405457 -1.105522 -0.521835 17.604826 7.016406 0.090994 -60.170662 -31.247221 -76.885292 48.397312 1.081138 0.499283 17.597584 -7.009474 -0.092517 
